<?xml version="1.0" encoding="utf-8"?>
<!-- Generator: Adobe Illustrator 28.2.0, SVG Export Plug-In . SVG Version: 6.00 Build 0)  -->
<svg version="1.1" id="Layer_1" xmlns="http://www.w3.org/2000/svg" xmlns:xlink="http://www.w3.org/1999/xlink" x="0px" y="0px"
	 viewBox="0 0 850.39 850.39" style="enable-background:new 0 0 850.39 850.39;" xml:space="preserve">
<style type="text/css">
	.st0{fill:#3B6366;}
</style>
<g>
	<path class="st0" d="M425.2,267.89c-44.59,0-80.87-36.28-80.87-80.87s36.28-80.87,80.87-80.87c44.59,0,80.87,36.28,80.87,80.87
		S469.79,267.89,425.2,267.89z M425.2,126.16c-33.56,0-60.87,27.3-60.87,60.87s27.3,60.87,60.87,60.87
		c33.56,0,60.87-27.3,60.87-60.87S458.76,126.16,425.2,126.16z"/>
	<path class="st0" d="M552.76,344.53H297.64c-5.52,0-10-4.48-10-10s4.48-10,10-10h255.12c5.52,0,10,4.48,10,10
		S558.28,344.53,552.76,344.53z"/>
	<path class="st0" d="M595.28,437.53H255.12c-5.52,0-10-4.48-10-10c0-5.52,4.48-10,10-10h340.16c5.52,0,10,4.48,10,10
		C605.28,433.05,600.8,437.53,595.28,437.53z"/>
	<g>
		<path class="st0" d="M501.88,510.53H297.64c-5.52,0-10,4.48-10,10s4.48,10,10,10h204.24V510.53z"/>
		<path class="st0" d="M552.76,510.53h-30.88v20h30.88c5.52,0,10-4.48,10-10S558.28,510.53,552.76,510.53z"/>
	</g>
	<path class="st0" d="M425.2,583.08c-42.77,0-77.86,33.38-80.66,75.44h20.05c2.75-31.03,28.88-55.44,60.61-55.44
		c33.56,0,60.87,27.3,60.87,60.87c0,30.33-22.3,55.54-51.35,60.12v20.17c40.12-4.73,71.35-38.92,71.35-80.29
		C506.06,619.36,469.79,583.08,425.2,583.08z"/>
	<path class="st0" d="M425.28,597.71c-5.52,0-9.99-4.47-10-9.99l-0.4-329.38c-0.01-5.52,4.46-10.01,9.99-10.01c0,0,0.01,0,0.01,0
		c5.52,0,9.99,4.47,10,9.99l0.4,329.38c0.01,5.52-4.46,10-9.99,10.01C425.29,597.71,425.29,597.71,425.28,597.71z"/>
</g>
</svg>
